<svg width="24" height="24" viewBox="0 0 24 24" fill="#000000" xmlns="http://www.w3.org/2000/svg">
  <path fill-rule="evenodd" clip-rule="evenodd" d="M12 2.5c-4.97 0-9 1.68-9 3.75v10.5c0 2.07 4.03 3.75 9 3.75s9-1.68 9-3.75V6.25c0-2.07-4.03-3.75-9-3.75ZM5 8.48v2.73c.45.29 1.09.57 1.89.8 1.35.4 3.16.64 5.11.64 1.95 0 3.76-.24 5.11-.64.8-.23 1.44-.51 1.89-.8V8.48c-1.63.93-4.18 1.52-7 1.52s-5.37-.59-7-1.52Zm14 5.08c-1.63.93-4.18 1.52-7 1.52s-5.37-.59-7-1.52v3.19c0 .2.43.72 1.89 1.15 1.35.4 3.16.64 5.11.64 1.95 0 3.76-.24 5.11-.64 1.46-.43 1.89-.95 1.89-1.15v-3.19ZM12 4.46c-1.95 0-3.76.24-5.11.64C5.43 5.53 5 6.05 5 6.25s.43.72 1.89 1.15c1.35.4 3.16.64 5.11.64 1.95 0 3.76-.24 5.11-.64C18.57 6.97 19 6.45 19 6.25s-.43-.72-1.89-1.15c-1.35-.4-3.16-.64-5.11-.64Z"/>
</svg>
